<svg width="197" height="936" viewBox="0 0 197 936" fill="none" xmlns="http://www.w3.org/2000/svg">
<path d="M0.8621 967.345L24.9905 958.738C49.5207 950.457 97.1747 932.755 93.8937 873.755C90.0099 814.267 35.1911 713.481 26.0832 649.757C16.9753 586.032 55.5876 560.999 98.4193 539.387C141.854 518.263 189.508 500.561 222.595 471.047C255.681 441.534 272.192 398.581 310.503 373.303C348.412 347.699 407.117 338.957 460.597 325.979C514.48 313.326 562.134 295.624 564.077 240.86C566.02 186.095 520.243 92.6404 542.982 54.7372C565.319 16.5083 655.168 33.0166 713.873 24.2741C772.578 15.5315 800.139 -18.4618 822.477 -56.6908C845.216 -94.594 861.726 -137.547 858.445 -196.547C854.561 -256.036 830.886 -331.571 847.698 -374.28C864.911 -416.663 923.616 -425.405 951.177 -459.399C978.739 -493.392 975.156 -552.636 1002.72 -586.63C1030.28 -620.623 1088.98 -629.365 1126.89 -654.969C1165.2 -680.247 1181.71 -723.2 1220.03 -748.478C1257.93 -774.081 1316.64 -782.824 1359.77 -804.192C1402.91 -825.56 1430.47 -859.553 1463.25 -889.311C1495.64 -919.394 1534.25 -944.428 1566.63 -974.511C1599.42 -1004.27 1626.98 -1038.26 1654.54 -1072.26C1682.1 -1106.25 1709.66 -1140.24 1742.45 -1170C1774.83 -1200.08 1813.44 -1225.12 1845.83 -1255.2C1878.61 -1284.96 1906.17 -1318.95 1918.16 -1365.57C1930.15 -1412.19 1926.57 -1471.43 1924.78 -1501.06L1922.99 -1530.68L2109.85 -1379.17L2096.07 -1362.18C2082.29 -1345.18 2054.73 -1311.19 2027.17 -1277.19C1999.6 -1243.2 1972.04 -1209.21 1944.48 -1175.21C1916.92 -1141.22 1889.36 -1107.23 1861.8 -1073.23C1834.24 -1039.24 1806.68 -1005.25 1779.11 -971.252C1751.55 -937.259 1723.99 -903.266 1696.43 -869.272C1668.87 -835.279 1641.31 -801.286 1613.75 -767.292C1586.18 -733.299 1558.62 -699.306 1531.06 -665.312C1503.5 -631.319 1475.94 -597.325 1448.38 -563.332C1420.82 -529.339 1393.26 -495.345 1365.69 -461.352C1338.13 -427.359 1310.57 -393.365 1283.01 -359.372C1255.45 -325.379 1227.89 -291.385 1200.33 -257.392C1172.77 -223.399 1145.2 -189.405 1117.64 -155.412C1090.08 -121.419 1062.52 -87.4253 1034.96 -53.432C1007.4 -19.4386 979.837 14.5547 952.275 48.5481C924.714 82.5415 897.153 116.535 869.592 150.528C842.03 184.522 814.469 218.515 786.908 252.508C759.346 286.502 731.785 320.495 704.224 354.488C676.663 388.482 649.101 422.475 621.54 456.468C593.979 490.462 566.417 524.455 538.856 558.448C511.295 592.442 483.734 626.435 456.172 660.428C428.611 694.422 401.05 728.415 373.488 762.408C345.927 796.402 318.366 830.395 290.805 864.389C263.243 898.382 235.682 932.375 208.121 966.369C180.559 1000.36 152.998 1034.36 139.218 1051.35L125.437 1068.35L0.8621 967.345Z" fill="url(#paint0_linear_8_299)"/>
<defs>
<linearGradient id="paint0_linear_8_299" x1="125.437" y1="1068.35" x2="-163.937" y2="833.729" gradientUnits="userSpaceOnUse">
<stop stop-color="#00BF63"/>
<stop offset="1" stop-color="#7ED957"/>
</linearGradient>
</defs>
</svg>
