<svg width="268" height="550" viewBox="0 0 268 550" fill="none" xmlns="http://www.w3.org/2000/svg">
<path d="M267.444 -171.033L246.518 -168.942C225.237 -167.215 183.916 -162.485 187.494 -111.567C191.602 -60.1017 240.609 37.5521 249.322 93.7545C258.035 149.957 224.685 162.886 187.614 171.988C150.012 180.544 108.691 185.274 80.2111 203.213C51.7307 221.153 37.8622 254.124 4.77687 267.326C-27.9542 280.893 -79.0165 275.601 -125.474 275.047C-172.285 274.128 -213.607 278.858 -214.634 325.039C-215.662 371.22 -174.626 460.675 -193.985 487.997C-212.989 515.685 -291.504 482.152 -342.567 476.86C-393.629 471.568 -417.239 494.519 -436.243 522.206C-455.602 549.529 -469.471 582.5 -465.894 633.419C-461.785 684.884 -440.231 754.296 -454.365 786.994C-468.854 819.327 -519.916 814.036 -543.526 836.986C-567.136 859.936 -563.293 911.128 -586.903 934.078C-610.512 957.028 -661.575 951.736 -694.306 965.303C-727.391 978.505 -741.26 1011.48 -774.345 1024.68C-807.076 1038.24 -858.138 1032.95 -895.474 1041.78C-932.81 1050.61 -956.42 1073.56 -984.635 1091.77C-1012.5 1110.35 -1045.85 1123.28 -1073.71 1141.86C-1101.92 1160.07 -1125.53 1183.02 -1149.14 1205.97C-1172.75 1228.92 -1196.36 1251.87 -1224.57 1270.08C-1252.44 1288.66 -1285.79 1301.59 -1313.65 1320.17C-1341.86 1338.38 -1365.47 1361.33 -1375.35 1398.4C-1385.24 1435.47 -1381.4 1486.66 -1379.47 1512.26L-1377.55 1537.85L-1542.27 1368.4L-1530.46 1356.93C-1518.66 1345.45 -1495.05 1322.5 -1471.44 1299.55C-1447.83 1276.6 -1424.22 1253.65 -1400.61 1230.7C-1377 1207.75 -1353.39 1184.8 -1329.78 1161.85C-1306.17 1138.9 -1282.56 1115.95 -1258.95 1093C-1235.34 1070.05 -1211.73 1047.1 -1188.12 1024.15C-1164.51 1001.2 -1140.9 978.254 -1117.29 955.304C-1093.68 932.353 -1070.07 909.403 -1046.46 886.453C-1022.85 863.503 -999.244 840.553 -975.634 817.603C-952.024 794.653 -928.415 771.703 -904.805 748.753C-881.195 725.803 -857.585 702.853 -833.976 679.903C-810.366 656.953 -786.756 634.003 -763.146 611.053C-739.536 588.102 -715.927 565.152 -692.317 542.202C-668.707 519.252 -645.098 496.302 -621.488 473.352C-597.878 450.402 -574.268 427.452 -550.659 404.502C-527.049 381.552 -503.439 358.602 -479.829 335.652C-456.22 312.702 -432.61 289.752 -409 266.802C-385.39 243.852 -361.781 220.901 -338.171 197.951C-314.561 175.001 -290.951 152.051 -267.342 129.101C-243.732 106.151 -220.122 83.2011 -196.512 60.251C-172.903 37.301 -149.293 14.3509 -125.683 -8.59919C-102.073 -31.5492 -78.4635 -54.4993 -54.8538 -77.4494C-31.244 -100.399 -7.6343 -123.35 15.9755 -146.3C39.5852 -169.25 63.195 -192.2 86.8047 -215.15C110.414 -238.1 134.024 -261.05 145.829 -272.525L157.634 -284L267.444 -171.033Z" fill="url(#paint0_linear_9_301)"/>
<defs>
<linearGradient id="paint0_linear_9_301" x1="157.634" y1="-284" x2="412.711" y2="-21.5909" gradientUnits="userSpaceOnUse">
<stop stop-color="#00BF63"/>
<stop offset="1" stop-color="#7ED957"/>
</linearGradient>
</defs>
</svg>
