<svg width="726" height="439" viewBox="0 0 726 439" fill="none" xmlns="http://www.w3.org/2000/svg">
<path d="M725.48 384.947V438.742L1.91817 413.281C-0.768584 413.025 -0.572396 409.045 2.12766 409.051L542.97 410.634C559.676 410.684 566.01 388.824 551.872 379.929L497.462 345.693C491.207 342.963 492.298 334.803 499.014 333.613L598.727 317.319H614.216L532.662 336.782C530.185 337.257 530.165 340.799 532.639 341.297L725.48 384.947Z" fill="#7ED957"/>
<path d="M690.624 138.399H655.267V162.985H690.624V138.399Z" fill="#7ED957"/>
<path d="M655.43 316.843V136.721" stroke="#56303C" stroke-width="1.79893" stroke-miterlimit="10"/>
<path d="M679.455 147.74V153.137H675.864V156.728H670.467V153.137H666.876V147.74H670.467V144.149H675.864V147.74H679.455Z" fill="#FFAFB1"/>
<path d="M665.246 318.056H558.471V204.551H634.638L665.246 318.056Z" fill="#00BF63"/>
<path d="M589.077 318.057H420.526L446.033 204.552L502.252 179.044L558.471 204.552L589.077 318.057Z" fill="#7ED957"/>
<path d="M558.471 204.552L502.252 179.044H578.419L634.638 204.552H558.471Z" fill="#00BF63"/>
<path d="M502.252 179.044L558.471 204.552H634.638" stroke="#7ED957" stroke-width="1.43981" stroke-miterlimit="10"/>
<path d="M533.369 179.044L589.588 204.552" stroke="#7ED957" stroke-width="1.43981" stroke-miterlimit="10"/>
<path d="M559.386 179.044L615.605 204.552" stroke="#7ED957" stroke-width="1.43981" stroke-miterlimit="10"/>
<path d="M536.393 239.885H465.051V318.053H536.393V239.885Z" fill="#B4702F"/>
<path d="M465.22 226.783H535.382V239.884H465.22C463.552 239.884 461.951 239.221 460.772 238.041C459.592 236.861 458.929 235.261 458.929 233.593V233.071C458.93 231.403 459.593 229.803 460.773 228.624C461.952 227.445 463.552 226.783 465.22 226.783Z" fill="white"/>
<path d="M535.321 239.884C538.658 239.884 541.363 236.951 541.363 233.333C541.363 229.716 538.658 226.783 535.321 226.783C531.985 226.783 529.279 229.716 529.279 233.333C529.279 236.951 531.985 239.884 535.321 239.884Z" fill="#A0D6FF"/>
<path d="M472.964 239.885H536.392V280.322L472.964 239.885Z" fill="#56303C"/>
<path d="M524.64 239.885V254.093" stroke="#7ED957" stroke-width="1.26025" stroke-miterlimit="10"/>
<path d="M472.884 239.885V247.892" stroke="#7ED957" stroke-width="1.26025" stroke-miterlimit="10"/>
<path d="M608.592 234.987H685.368L725.479 318.144H648.707L608.592 234.987Z" fill="#7ED957"/>
<path d="M567.27 318.144H648.707L608.592 234.987H608.263L567.27 318.144Z" fill="#A0D6FF"/>
<path d="M608.771 234.987L566.757 318.144" stroke="white" stroke-width="1.43981" stroke-miterlimit="10"/>
<path d="M595.773 318.144H624.606C616.861 314.141 610.221 308.293 605.27 301.117C600.319 293.941 597.211 285.656 596.219 276.995L595.773 273.104V318.144Z" fill="#56303C"/>
<path d="M623.735 318.143C608.01 310.013 597.133 291.635 595.138 274.048" stroke="white" stroke-width="1.79893" stroke-miterlimit="10" stroke-linecap="round"/>
<path d="M623.735 318.144V275.056" stroke="#56303C" stroke-width="1.79893" stroke-miterlimit="10"/>
<path d="M350.212 81.434C372.699 81.434 390.929 63.2043 390.929 40.717C390.929 18.2296 372.699 0 350.212 0C327.725 0 309.495 18.2296 309.495 40.717C309.495 63.2043 327.725 81.434 350.212 81.434Z" fill="#7ED957"/>
<path d="M452.255 40.3014H367.13C367.13 32.7532 374.885 26.6349 384.448 26.6349C386.531 26.6309 388.603 26.93 390.6 27.5227C393.772 22.8674 398.64 19.9014 404.1 19.9014C412.296 19.9014 419.163 26.6083 420.959 35.6229C424.108 33.405 429.192 31.6526 434.924 31.6526C444.501 31.6526 452.255 36.5273 452.255 40.3014Z" fill="#00BF63"/>
<path d="M308.601 84.5864H220.35C220.35 73.999 232.068 65.4166 246.519 65.4166C255.95 65.4166 264.216 69.0743 268.825 74.5509C273.223 73.1506 277.812 72.4428 282.428 72.4527C296.879 72.4561 308.601 79.296 308.601 84.5864Z" fill="#00BF63"/>
<path d="M71.2714 401.947C71.2708 404.839 70.316 407.65 68.555 409.943C66.794 412.237 64.3253 413.885 61.5319 414.633" stroke="#D9AF00" stroke-width="1.79893" stroke-miterlimit="10" stroke-linecap="round"/>
<path d="M326.803 249.424L287.386 372.878C286.631 375.243 285.144 377.307 283.139 378.772C281.134 380.236 278.716 381.025 276.233 381.025H16.4625" stroke="#56303C" stroke-width="1.79893" stroke-miterlimit="10" stroke-linecap="round"/>
<path d="M307.815 249.936H343.282" stroke="#D9AF00" stroke-width="3.59786" stroke-linecap="round" stroke-linejoin="round"/>
<path d="M54.2959 412.742C61.5444 412.742 67.4204 406.865 67.4204 399.617C67.4204 392.369 61.5444 386.492 54.2959 386.492C47.0474 386.492 41.1714 392.369 41.1714 399.617C41.1714 406.865 47.0474 412.742 54.2959 412.742Z" fill="#A0D6FF"/>
<path d="M54.2963 408.614C59.2657 408.614 63.2942 404.585 63.2942 399.616C63.2942 394.646 59.2657 390.618 54.2963 390.618C49.3268 390.618 45.2983 394.646 45.2983 399.616C45.2983 404.585 49.3268 408.614 54.2963 408.614Z" stroke="white" stroke-width="1.79893" stroke-miterlimit="10"/>
<path d="M243.553 412.742C250.802 412.742 256.678 406.865 256.678 399.617C256.678 392.369 250.802 386.492 243.553 386.492C236.305 386.492 230.429 392.369 230.429 399.617C230.429 406.865 236.305 412.742 243.553 412.742Z" fill="#A0D6FF"/>
<path d="M243.553 408.614C248.522 408.614 252.551 404.585 252.551 399.616C252.551 394.646 248.522 390.618 243.553 390.618C238.583 390.618 234.555 394.646 234.555 399.616C234.555 404.585 238.583 408.614 243.553 408.614Z" stroke="#56303C" stroke-width="1.79893" stroke-miterlimit="10" stroke-linecap="round"/>
<path d="M169.083 158.033H41.1828V375.856H169.083V158.033Z" fill="#00BF63"/>
<path d="M90.3658 375.992V158.471" stroke="#7ED957" stroke-width="1.08069" stroke-miterlimit="10"/>
<path d="M80.8055 375.992V158.471" stroke="#7ED957" stroke-width="1.08069" stroke-miterlimit="10"/>
<path d="M100.215 375.992V158.471" stroke="#7ED957" stroke-width="1.08069" stroke-miterlimit="10"/>
<path d="M110.064 375.992V158.471" stroke="#7ED957" stroke-width="1.08069" stroke-miterlimit="10"/>
<path d="M119.913 375.992V158.471" stroke="#7ED957" stroke-width="1.08069" stroke-miterlimit="10"/>
<path d="M129.762 375.992V158.471" stroke="#7ED957" stroke-width="1.08069" stroke-miterlimit="10"/>
<path d="M139.612 375.992V158.471" stroke="#7ED957" stroke-width="1.08069" stroke-miterlimit="10"/>
<path d="M149.461 375.992V158.471" stroke="#7ED957" stroke-width="1.08069" stroke-miterlimit="10"/>
<path d="M51.3909 375.992V158.471" stroke="#7ED957" stroke-width="1.08069" stroke-miterlimit="10"/>
<path d="M61.2438 375.992V158.471" stroke="#7ED957" stroke-width="1.08069" stroke-miterlimit="10"/>
<path d="M71.093 375.992V158.471" stroke="#7ED957" stroke-width="1.08069" stroke-miterlimit="10"/>
<path d="M168.724 243.952H41.3857" stroke="#7ED957" stroke-width="1.08069" stroke-miterlimit="10"/>
<path d="M168.724 234.099H41.3857" stroke="#7ED957" stroke-width="1.08069" stroke-miterlimit="10"/>
<path d="M168.724 224.249H41.3857" stroke="#7ED957" stroke-width="1.08069" stroke-miterlimit="10"/>
<path d="M168.724 214.401H41.3857" stroke="#7ED957" stroke-width="1.08069" stroke-miterlimit="10"/>
<path d="M168.724 204.552H41.3857" stroke="#7ED957" stroke-width="1.08069" stroke-miterlimit="10"/>
<path d="M168.724 194.703H41.3857" stroke="#7ED957" stroke-width="1.08069" stroke-miterlimit="10"/>
<path d="M168.724 184.853H41.3857" stroke="#7ED957" stroke-width="1.08069" stroke-miterlimit="10"/>
<path d="M168.724 175.004H41.9412" stroke="#7ED957" stroke-width="1.08069" stroke-miterlimit="10"/>
<path d="M168.724 165.151H41.3857" stroke="#7ED957" stroke-width="1.08069" stroke-miterlimit="10"/>
<path d="M168.724 322.805H41.3857" stroke="#7ED957" stroke-width="1.08069" stroke-miterlimit="10"/>
<path d="M168.724 332.758H41.3857" stroke="#7ED957" stroke-width="1.08069" stroke-miterlimit="10"/>
<path d="M168.724 312.957H41.3857" stroke="#7ED957" stroke-width="1.08069" stroke-miterlimit="10"/>
<path d="M168.724 303.107H41.3857" stroke="#7ED957" stroke-width="1.08069" stroke-miterlimit="10"/>
<path d="M168.724 361.065L41.3857 361.578" stroke="#7ED957" stroke-width="1.08069" stroke-miterlimit="10"/>
<path d="M168.724 371.53H41.3857" stroke="#7ED957" stroke-width="1.08069" stroke-miterlimit="10"/>
<path d="M168.724 351.729H41.3857" stroke="#7ED957" stroke-width="1.08069" stroke-miterlimit="10"/>
<path d="M168.724 341.876H41.3857" stroke="#7ED957" stroke-width="1.08069" stroke-miterlimit="10"/>
<path d="M168.724 293.258H41.3857" stroke="#7ED957" stroke-width="1.08069" stroke-miterlimit="10"/>
<path d="M168.724 283.408H41.3857" stroke="#7ED957" stroke-width="1.08069" stroke-miterlimit="10"/>
<path d="M168.724 273.558H41.3857" stroke="#7ED957" stroke-width="1.08069" stroke-miterlimit="10"/>
<path d="M168.724 263.71H41.3857" stroke="#7ED957" stroke-width="1.08069" stroke-miterlimit="10"/>
<path d="M168.724 253.857H41.9412" stroke="#7ED957" stroke-width="1.08069" stroke-miterlimit="10"/>
<path d="M159.759 375.992V158.471" stroke="#7ED957" stroke-width="1.08069" stroke-miterlimit="10"/>
<path d="M135.365 210.315C137.081 210.315 138.471 206.894 138.471 202.674C138.471 198.454 137.081 195.032 135.365 195.032C133.65 195.032 132.26 198.454 132.26 202.674C132.26 206.894 133.65 210.315 135.365 210.315Z" fill="#D9AF00"/>
<path d="M144.364 217.59C146.623 214.025 147.28 210.391 145.831 209.473C144.382 208.555 141.376 210.7 139.118 214.265C136.859 217.83 136.202 221.464 137.651 222.382C139.1 223.3 142.106 221.154 144.364 217.59Z" fill="#D9AF00"/>
<path d="M133.079 222.388C134.527 221.47 133.871 217.836 131.612 214.271C129.353 210.707 126.348 208.561 124.899 209.479C123.45 210.397 124.106 214.031 126.365 217.596C128.624 221.161 131.63 223.306 133.079 222.388Z" fill="#D9AF00"/>
<path d="M144.367 234.426C146.626 230.861 147.282 227.227 145.833 226.309C144.384 225.391 141.379 227.536 139.12 231.101C136.861 234.666 136.205 238.3 137.653 239.218C139.102 240.136 142.108 237.99 144.367 234.426Z" fill="#D9AF00"/>
<path d="M133.078 239.223C134.527 238.305 133.87 234.671 131.611 231.106C129.352 227.541 126.347 225.396 124.898 226.314C123.449 227.232 124.106 230.866 126.364 234.431C128.623 237.995 131.629 240.141 133.078 239.223Z" fill="#D9AF00"/>
<path d="M135.365 207.222V252.485" stroke="#D9AF00" stroke-width="1.43981" stroke-miterlimit="10" stroke-linecap="round"/>
<path d="M135.365 192.169V189.911" stroke="#D9AF00" stroke-width="1.43981" stroke-miterlimit="10" stroke-linecap="round"/>
<path d="M75.3125 221.577C77.0278 221.577 78.4183 218.156 78.4183 213.936C78.4183 209.716 77.0278 206.295 75.3125 206.295C73.5973 206.295 72.2068 209.716 72.2068 213.936C72.2068 218.156 73.5973 221.577 75.3125 221.577Z" fill="#D9AF00"/>
<path d="M83.5955 229.152C85.8744 225.607 86.5538 221.982 85.113 221.056C83.6722 220.13 80.6568 222.253 78.3779 225.798C76.099 229.343 75.4196 232.967 76.8604 233.893C78.3012 234.82 81.3166 232.697 83.5955 229.152Z" fill="#D9AF00"/>
<path d="M73.8551 229.327C75.2959 228.4 74.6165 224.776 72.3376 221.231C70.0587 217.686 67.0433 215.563 65.6025 216.489C64.1617 217.416 64.8411 221.04 67.12 224.585C69.3989 228.13 72.4143 230.253 73.8551 229.327Z" fill="#D9AF00"/>
<path d="M84.3147 242.12C86.5735 238.555 87.2301 234.921 85.7812 234.003C84.3324 233.085 81.3267 235.23 79.0679 238.795C76.8091 242.36 76.1525 245.994 77.6014 246.912C79.0503 247.83 82.0559 245.684 84.3147 242.12Z" fill="#D9AF00"/>
<path d="M73.0258 246.917C74.4746 245.999 73.8181 242.365 71.5593 238.8C69.3005 235.235 66.2948 233.089 64.846 234.007C63.3971 234.926 64.0537 238.56 66.3124 242.124C68.5712 245.689 71.5769 247.835 73.0258 246.917Z" fill="#D9AF00"/>
<path d="M75.3124 218.487V252.527" stroke="#D9AF00" stroke-width="1.43981" stroke-miterlimit="10" stroke-linecap="round"/>
<path d="M75.3124 203.434V201.177" stroke="#D9AF00" stroke-width="1.43981" stroke-miterlimit="10" stroke-linecap="round"/>
<path d="M107.368 196.697C109.083 196.697 110.473 193.276 110.473 189.055C110.473 184.835 109.083 181.414 107.368 181.414C105.652 181.414 104.262 184.835 104.262 189.055C104.262 193.276 105.652 196.697 107.368 196.697Z" fill="#D9AF00"/>
<path d="M116.368 201.933C118.626 198.368 119.283 194.734 117.834 193.816C116.385 192.898 113.38 195.044 111.121 198.608C108.862 202.173 108.205 205.807 109.654 206.725C111.103 207.643 114.109 205.498 116.368 201.933Z" fill="#D9AF00"/>
<path d="M116.365 217.236C118.624 213.671 119.281 210.037 117.832 209.119C116.383 208.201 113.377 210.346 111.119 213.911C108.86 217.476 108.203 221.11 109.652 222.028C111.101 222.946 114.107 220.801 116.365 217.236Z" fill="#D9AF00"/>
<path d="M105.079 206.735C106.528 205.817 105.872 202.183 103.613 198.618C101.354 195.053 98.3484 192.907 96.8996 193.825C95.4507 194.744 96.1073 198.378 98.3661 201.942C100.625 205.507 103.631 207.653 105.079 206.735Z" fill="#D9AF00"/>
<path d="M105.077 222.037C106.526 221.119 105.869 217.485 103.611 213.921C101.352 210.356 98.3462 208.21 96.8973 209.128C95.4485 210.046 96.105 213.68 98.3638 217.245C100.623 220.81 103.628 222.956 105.077 222.037Z" fill="#D9AF00"/>
<path d="M116.368 234.072C118.626 230.507 119.283 226.873 117.834 225.955C116.385 225.037 113.38 227.182 111.121 230.747C108.862 234.312 108.205 237.946 109.654 238.864C111.103 239.782 114.109 237.637 116.368 234.072Z" fill="#D9AF00"/>
<path d="M105.08 238.872C106.529 237.954 105.872 234.32 103.614 230.755C101.355 227.19 98.3492 225.045 96.9003 225.963C95.4515 226.881 96.108 230.515 98.3668 234.08C100.626 237.645 103.631 239.79 105.08 238.872Z" fill="#D9AF00"/>
<path d="M107.368 193.608V252.131" stroke="#D9AF00" stroke-width="1.43981" stroke-miterlimit="10" stroke-linecap="round"/>
<path d="M125.959 157.989H85.8701V175.543H125.959V157.989Z" fill="white"/>
<path d="M125.959 358.305H85.8701V375.858H125.959V358.305Z" fill="white"/>
<path d="M197.65 158.035H169.083V375.859H197.65V158.035Z" fill="#D9AF00"/>
<path d="M141.268 254.005H69.5101C66.0778 254.005 63.2953 256.787 63.2953 260.22V279.187C63.2953 282.619 66.0778 285.401 69.5101 285.401H141.268C144.7 285.401 147.483 282.619 147.483 279.187V260.22C147.483 256.787 144.7 254.005 141.268 254.005Z" fill="white"/>
<path d="M136.02 264H75.1027V275.518H136.02V264Z" fill="#A0D6FF"/>
<path d="M91.1937 270.657L92.8563 268.994C93.2596 268.591 93.8061 268.365 94.3759 268.365C94.9457 268.365 95.4922 268.591 95.8955 268.994L97.2854 270.384C97.5682 270.665 97.9508 270.823 98.3495 270.823C98.7482 270.823 99.1307 270.665 99.4135 270.384L100.8 268.994C101.203 268.591 101.75 268.365 102.32 268.365C102.89 268.365 103.436 268.591 103.839 268.994L105.342 270.497C105.482 270.637 105.648 270.748 105.831 270.824C106.014 270.9 106.21 270.939 106.408 270.939C106.606 270.939 106.802 270.9 106.985 270.824C107.168 270.748 107.334 270.637 107.474 270.497L108.973 268.994C109.377 268.591 109.923 268.365 110.493 268.365C111.063 268.365 111.609 268.591 112.013 268.994L113.403 270.384C113.685 270.665 114.068 270.823 114.467 270.823C114.865 270.823 115.248 270.665 115.531 270.384L116.917 268.994C117.321 268.591 117.867 268.365 118.437 268.365C119.007 268.365 119.553 268.591 119.957 268.994L121.952 271.009" stroke="#B4702F" stroke-width="1.43981" stroke-miterlimit="10"/>
<path d="M197.649 158.035C197.649 164.2 191.255 169.201 183.351 169.201C175.447 169.201 169.069 164.213 169.069 158.035" stroke="white" stroke-width="1.79893" stroke-miterlimit="10"/>
<path d="M41.1834 165.82L102.327 157.989L41.1834 177.923V165.82Z" fill="#56303C"/>
<path d="M91.1937 167.1L92.8563 165.438C93.0555 165.238 93.2923 165.079 93.5531 164.97C93.8139 164.862 94.0935 164.806 94.3759 164.806C94.6583 164.806 94.9379 164.862 95.1986 164.97C95.4594 165.079 95.6962 165.238 95.8955 165.438L97.2854 166.824C97.425 166.964 97.5909 167.075 97.7735 167.151C97.9561 167.227 98.1518 167.266 98.3495 167.266C98.5472 167.266 98.7429 167.227 98.9255 167.151C99.1081 167.075 99.2739 166.964 99.4135 166.824L100.8 165.438C100.999 165.238 101.236 165.079 101.497 164.97C101.758 164.862 102.037 164.806 102.32 164.806C102.602 164.806 102.882 164.862 103.143 164.97C103.403 165.079 103.64 165.238 103.839 165.438L105.342 166.941C105.482 167.081 105.648 167.192 105.831 167.268C106.014 167.343 106.21 167.382 106.408 167.382C106.606 167.382 106.802 167.343 106.985 167.268C107.168 167.192 107.334 167.081 107.474 166.941L108.973 165.438C109.173 165.238 109.41 165.079 109.67 164.97C109.931 164.862 110.211 164.806 110.493 164.806C110.775 164.806 111.055 164.862 111.316 164.97C111.577 165.079 111.813 165.238 112.013 165.438L113.403 166.824C113.542 166.964 113.708 167.075 113.891 167.151C114.073 167.227 114.269 167.266 114.467 167.266C114.664 167.266 114.86 167.227 115.043 167.151C115.225 167.075 115.391 166.964 115.531 166.824L116.917 165.438C117.117 165.238 117.353 165.079 117.614 164.97C117.875 164.862 118.155 164.806 118.437 164.806C118.719 164.806 118.999 164.862 119.26 164.97C119.52 165.079 119.757 165.238 119.957 165.438L121.952 167.449" stroke="#B4702F" stroke-width="1.43981" stroke-miterlimit="10"/>
<path d="M107.368 179.76V178.603" stroke="#D9AF00" stroke-width="1.43981" stroke-miterlimit="10" stroke-linecap="round"/>
<path d="M276.319 157.489V181.986C276.318 184.161 275.694 186.29 274.519 188.121C273.344 189.952 271.669 191.407 269.692 192.314C269.065 192.601 268.54 193.073 268.188 193.666C267.835 194.259 267.672 194.945 267.719 195.634C267.765 196.322 268.021 196.979 268.45 197.519C268.88 198.059 269.464 198.455 270.124 198.655L270.629 198.808C272.272 199.305 273.712 200.316 274.736 201.693C275.76 203.07 276.315 204.74 276.319 206.456V206.612C276.317 208.324 275.767 209.989 274.75 211.366C273.733 212.742 272.302 213.756 270.666 214.26C269.825 214.52 269.078 215.016 268.513 215.69C267.947 216.364 267.589 217.187 267.48 218.06C267.371 218.933 267.517 219.819 267.899 220.611C268.281 221.403 268.884 222.069 269.635 222.526L269.968 222.729C271.904 223.913 273.505 225.574 274.615 227.554C275.725 229.533 276.309 231.765 276.309 234.035V362.896C276.309 362.976 276.309 363.052 276.309 363.129C276.179 366.67 273.123 369.503 269.369 369.503C267.882 369.526 266.427 369.067 265.222 368.196C264.016 367.325 263.124 366.088 262.679 364.668C262.365 363.543 261.737 362.529 260.87 361.746L260.601 361.51C259.513 360.547 258.113 360.012 256.661 360.005C255.208 359.999 253.803 360.52 252.707 361.473L252.414 361.729C251.546 362.466 250.905 363.435 250.569 364.522C249.641 367.664 246.07 370.005 241.807 370.005C237.544 370.005 233.976 367.678 233.045 364.522C232.709 363.431 232.07 362.458 231.203 361.716L230.787 361.35C229.726 360.42 228.371 359.895 226.961 359.867C225.551 359.839 224.176 360.31 223.079 361.197L222.464 361.696C221.503 362.457 220.797 363.495 220.442 364.668C220 366.086 219.113 367.324 217.912 368.197C216.711 369.07 215.26 369.533 213.775 369.517C210.021 369.517 206.965 366.684 206.836 363.142C206.836 363.066 206.836 362.989 206.836 362.909V234.633C206.836 232.411 207.395 230.224 208.462 228.274C209.529 226.324 211.069 224.673 212.941 223.474L214.374 222.556C215.091 222.098 215.666 221.448 216.034 220.68C216.402 219.912 216.547 219.056 216.455 218.21C216.362 217.363 216.035 216.56 215.509 215.889C214.984 215.219 214.282 214.709 213.483 214.416L212.089 213.904C210.549 213.34 209.22 212.316 208.28 210.971C207.34 209.627 206.836 208.026 206.836 206.386C206.836 204.758 207.332 203.169 208.258 201.831C209.184 200.493 210.496 199.468 212.02 198.894L212.831 198.588C213.434 198.36 213.959 197.965 214.346 197.45C214.734 196.935 214.966 196.32 215.017 195.677C215.069 195.035 214.936 194.391 214.636 193.821C214.335 193.251 213.879 192.778 213.32 192.457L212.558 192.024C210.82 191.03 209.376 189.594 208.371 187.863C207.366 186.131 206.837 184.164 206.836 182.162V157.489L211.291 154.649C212.591 153.818 214.101 153.376 215.644 153.376C217.187 153.376 218.697 153.818 219.997 154.649L221.347 155.517C222.203 156.064 223.197 156.355 224.213 156.355C225.229 156.355 226.224 156.064 227.079 155.517L228.409 154.649C229.71 153.818 231.221 153.376 232.764 153.376C234.307 153.376 235.818 153.818 237.118 154.649L238.721 155.673C239.573 156.214 240.561 156.501 241.571 156.501C242.58 156.501 243.568 156.214 244.42 155.673L246.026 154.649C247.326 153.818 248.836 153.376 250.379 153.376C251.922 153.376 253.432 153.818 254.732 154.649L256.082 155.517C256.938 156.064 257.932 156.355 258.948 156.355C259.964 156.355 260.958 156.064 261.814 155.517L263.164 154.649C264.464 153.817 265.974 153.375 267.517 153.375C269.06 153.375 270.57 153.817 271.87 154.649L276.319 157.489Z" fill="#A0D6FF"/>
<path d="M211.272 162.809C212.571 161.978 214.082 161.536 215.624 161.536C217.167 161.536 218.677 161.978 219.977 162.809L221.327 163.677C222.183 164.224 223.177 164.515 224.193 164.515C225.209 164.515 226.204 164.224 227.06 163.677L228.39 162.809C229.69 161.978 231.201 161.536 232.744 161.536C234.287 161.536 235.798 161.978 237.098 162.809L238.701 163.833C239.553 164.374 240.542 164.661 241.551 164.661C242.56 164.661 243.548 164.374 244.4 163.833L246.03 162.809C247.329 161.978 248.84 161.536 250.383 161.536C251.925 161.536 253.436 161.978 254.735 162.809L256.085 163.677C256.941 164.224 257.936 164.515 258.952 164.515C259.967 164.515 260.962 164.224 261.818 163.677L263.168 162.809C264.467 161.978 265.978 161.536 267.521 161.536C269.063 161.536 270.574 161.978 271.873 162.809" stroke="white" stroke-width="1.79893" stroke-miterlimit="10" stroke-linecap="round"/>
<path d="M211.272 170.97C212.573 170.141 214.084 169.702 215.627 169.705C217.169 169.708 218.679 170.153 219.977 170.986L221.327 171.854C222.183 172.402 223.177 172.692 224.193 172.692C225.209 172.692 226.204 172.402 227.06 171.854L228.39 170.986C229.688 170.153 231.198 169.708 232.742 169.705C234.285 169.702 235.797 170.141 237.098 170.97L238.701 171.994C239.553 172.534 240.542 172.821 241.551 172.821C242.56 172.821 243.548 172.534 244.4 171.994L246.007 170.97C247.308 170.141 248.819 169.702 250.362 169.705C251.904 169.708 253.414 170.153 254.712 170.986L256.062 171.854C256.918 172.402 257.912 172.692 258.928 172.692C259.944 172.692 260.939 172.402 261.795 171.854L263.145 170.986C264.444 170.154 265.954 169.712 267.497 169.712C269.04 169.712 270.551 170.154 271.85 170.986" stroke="white" stroke-width="1.79893" stroke-miterlimit="10" stroke-linecap="round"/>
<path d="M280.945 234.072V364.878C280.954 367.558 279.982 370.148 278.212 372.16C276.443 374.172 273.999 375.468 271.34 375.802C268.682 376.136 265.993 375.486 263.78 373.974C261.568 372.462 259.986 370.193 259.331 367.595V367.595C258.6 364.725 254.523 364.725 253.791 367.595C253.189 369.96 251.816 372.057 249.889 373.554C247.962 375.051 245.591 375.863 243.151 375.861H240.71C238.27 375.863 235.899 375.051 233.971 373.554C232.044 372.057 230.671 369.96 230.069 367.595L230.046 367.498C229.315 364.629 225.238 364.629 224.506 367.498L224.483 367.595C223.828 370.193 222.246 372.462 220.034 373.974C217.821 375.486 215.132 376.136 212.474 375.802C209.815 375.468 207.371 374.172 205.602 372.16C203.832 370.148 202.86 367.558 202.869 364.878V234.072C202.869 229.679 204.614 225.466 207.72 222.36C210.827 219.254 215.039 217.509 219.432 217.509H264.405C268.794 217.515 273.001 219.263 276.102 222.368C279.203 225.474 280.945 229.683 280.945 234.072V234.072Z" stroke="#FFAFB1" stroke-width="1.79893" stroke-miterlimit="10"/>
<path d="M270.946 196.25H212.841C207.319 196.25 202.842 200.727 202.842 206.249V207.51C202.842 213.032 207.319 217.508 212.841 217.508H270.946C276.468 217.508 280.944 213.032 280.944 207.51V206.249C280.944 200.727 276.468 196.25 270.946 196.25Z" stroke="#FFAFB1" stroke-width="1.79893" stroke-miterlimit="10"/>
<path d="M234.768 128.064H249.023C257.489 128.064 265.608 131.427 271.595 137.414C277.581 143.4 280.944 151.52 280.944 159.986V182.86C280.944 186.412 279.533 189.819 277.021 192.331C274.51 194.843 271.103 196.254 267.551 196.254H216.236C212.684 196.254 209.277 194.843 206.765 192.331C204.253 189.819 202.842 186.412 202.842 182.86V159.986C202.842 155.794 203.668 151.642 205.273 147.769C206.877 143.896 209.229 140.377 212.193 137.413C215.158 134.448 218.677 132.097 222.551 130.493C226.424 128.889 230.575 128.064 234.768 128.064V128.064Z" stroke="#FFAFB1" stroke-width="1.79893" stroke-miterlimit="10"/>
<path d="M229.234 115.013V131.336C229.234 135.955 234.887 139.696 241.893 139.696C248.899 139.696 254.552 135.955 254.552 131.336V115.013H229.234Z" fill="white" stroke="#FFAFB1" stroke-width="1.79893" stroke-miterlimit="10"/>
<path d="M241.893 123.372C248.885 123.372 254.552 119.63 254.552 115.013C254.552 110.396 248.885 106.653 241.893 106.653C234.902 106.653 229.234 110.396 229.234 115.013C229.234 119.63 234.902 123.372 241.893 123.372Z" fill="white" stroke="#FFAFB1" stroke-width="1.79893" stroke-miterlimit="10"/>
<path d="M254.552 115.013V120.626C254.552 125.241 248.883 128.985 241.893 128.985C234.904 128.985 229.234 125.235 229.234 120.626V115.013" stroke="#A0D6FF" stroke-width="1.79893" stroke-miterlimit="10"/>
<path d="M241.893 123.372C248.885 123.372 254.552 119.63 254.552 115.013C254.552 110.396 248.885 106.653 241.893 106.653C234.902 106.653 229.234 110.396 229.234 115.013C229.234 119.63 234.902 123.372 241.893 123.372Z" fill="white" stroke="#A0D6FF" stroke-width="1.79893" stroke-miterlimit="10"/>
<path d="M257.313 186.977H224.812C221.198 186.977 218.268 189.907 218.268 193.521V222.32C218.268 225.935 221.198 228.864 224.812 228.864H257.313C260.927 228.864 263.857 225.935 263.857 222.32V193.521C263.857 189.907 260.927 186.977 257.313 186.977Z" fill="white"/>
<path d="M247.64 209.398C247.659 210.275 247.504 211.146 247.182 211.962C246.86 212.777 246.379 213.52 245.766 214.147C245.153 214.774 244.421 215.272 243.613 215.612C242.805 215.952 241.937 216.127 241.061 216.127C240.184 216.127 239.316 215.952 238.508 215.612C237.7 215.272 236.968 214.774 236.356 214.147C235.743 213.52 235.261 212.777 234.939 211.962C234.618 211.146 234.462 210.275 234.482 209.398C234.482 205.764 241.062 197.185 241.062 197.185C241.062 197.185 247.64 205.764 247.64 209.398Z" fill="#A0D6FF"/>
<path d="M244.89 209.089C244.89 209.633 244.782 210.171 244.574 210.674C244.366 211.176 244.061 211.632 243.677 212.017C243.293 212.401 242.836 212.706 242.334 212.914C241.832 213.122 241.293 213.229 240.75 213.229" stroke="white" stroke-width="1.79893" stroke-miterlimit="10" stroke-linecap="round"/>
<path d="M149.738 239.287V360.62C149.738 369.029 130.169 375.846 106.032 375.846C81.894 375.846 62.322 369.029 62.322 360.62V239.287C62.322 230.878 81.8907 224.061 106.032 224.061C130.173 224.061 149.738 230.891 149.738 239.287Z" fill="#A0D6FF"/>
<path d="M105.519 261.668C81.3816 261.668 61.8128 254.852 61.8128 246.442" stroke="white" stroke-width="1.79893" stroke-miterlimit="10" stroke-linecap="round"/>
<path d="M105.519 302.992C81.3816 302.992 61.8128 296.172 61.8128 287.762" stroke="white" stroke-width="1.79893" stroke-miterlimit="10" stroke-linecap="round"/>
<path d="M105.519 344.309C81.3816 344.309 61.8128 337.493 61.8128 329.083" stroke="white" stroke-width="1.79893" stroke-miterlimit="10" stroke-linecap="round"/>
<path d="M92.8435 268.16C74.8875 266.268 61.8128 260.458 61.8128 253.585" stroke="white" stroke-width="1.79893" stroke-miterlimit="10" stroke-linecap="round"/>
<path d="M105.519 268.811C102.961 268.811 100.458 268.734 98.0202 268.588" stroke="white" stroke-width="1.79893" stroke-miterlimit="10" stroke-linecap="round"/>
<path d="M71.1263 273.69C65.2973 271.103 61.8158 267.841 61.8158 264.3" stroke="white" stroke-width="1.79893" stroke-miterlimit="10" stroke-linecap="round"/>
<path d="M105.519 279.522C93.6984 279.522 82.9747 277.886 75.1073 275.229" stroke="white" stroke-width="1.79893" stroke-miterlimit="10" stroke-linecap="round"/>
<path d="M71.1263 330.314C65.2973 327.727 61.8158 324.465 61.8158 320.921" stroke="white" stroke-width="1.79893" stroke-miterlimit="10" stroke-linecap="round"/>
<path d="M105.519 336.147C93.6984 336.147 82.9747 334.514 75.1073 331.858" stroke="white" stroke-width="1.79893" stroke-miterlimit="10" stroke-linecap="round"/>
<path d="M149.738 239.287C149.738 247.697 130.169 254.513 106.032 254.513C81.894 254.513 62.322 247.697 62.322 239.287C62.322 230.878 81.8907 224.074 106.042 224.074C130.192 224.074 149.738 230.891 149.738 239.287Z" fill="white"/>
<path d="M145.89 239.288C145.89 246.298 128.044 251.977 106.031 251.977C84.0185 251.977 66.1689 246.311 66.1689 239.288C66.1689 232.265 84.0152 226.616 106.041 226.616C128.067 226.616 145.89 232.305 145.89 239.288Z" stroke="#D9AF00" stroke-width="1.43981" stroke-miterlimit="10" stroke-linecap="round"/>
<path d="M138.98 238.436C138.98 238.436 124.592 245.342 120.778 245.342C118.946 245.342 117.19 244.615 115.894 243.319C114.599 242.024 113.872 240.268 113.872 238.436C113.872 236.604 114.599 234.847 115.894 233.552C117.19 232.257 118.946 231.529 120.778 231.529C124.592 231.529 138.98 238.436 138.98 238.436Z" fill="#D9AF00"/>
<path d="M122.664 243.039C125.206 241.986 126.413 239.073 125.36 236.531C124.307 233.989 121.394 232.782 118.852 233.835C116.31 234.888 115.103 237.802 116.156 240.343C117.209 242.885 120.123 244.092 122.664 243.039Z" fill="white"/>
<path d="M138.981 235.364V241.313" stroke="#A0D6FF" stroke-width="1.61937" stroke-miterlimit="10" stroke-linecap="round"/>
<path d="M149.737 276.462V321.352C149.737 327.96 137.65 333.586 120.758 335.694V290.804C137.65 288.696 149.737 283.07 149.737 276.462Z" fill="#D9AF00"/>
<path d="M164.068 233.452L170.695 254.055" stroke="#56303C" stroke-width="3.59786" stroke-miterlimit="10" stroke-linecap="round"/>
<path d="M175.337 375.857C208.322 375.857 235.061 348.262 235.061 314.222C235.061 280.181 208.322 252.586 175.337 252.586C142.353 252.586 115.613 280.181 115.613 314.222C115.613 348.262 142.353 375.857 175.337 375.857Z" fill="#FFAFB1"/>
<path d="M236.487 290.227C240.309 299.602 241.832 309.755 240.93 319.839C240.027 329.922 236.726 339.644 231.3 348.191" stroke="white" stroke-width="1.79893" stroke-miterlimit="10" stroke-linecap="round"/>
<path d="M122.779 282.549C128.872 271.773 138.113 263.118 149.264 257.743" stroke="white" stroke-width="1.79893" stroke-miterlimit="10" stroke-linecap="round"/>
<path d="M197.483 270.672C211.05 278.373 220.244 293.266 220.244 310.374" stroke="#A0D6FF" stroke-width="4.49899" stroke-miterlimit="10" stroke-linecap="round"/>
<path d="M183.365 265.518C184.562 265.684 185.742 265.906 186.906 266.183" stroke="#A0D6FF" stroke-width="4.49899" stroke-miterlimit="10" stroke-linecap="round"/>
<path d="M193.958 363.092C193.957 363.688 193.72 364.26 193.297 364.681C192.875 365.103 192.303 365.339 191.707 365.339H188.172V367.388C188.184 367.69 188.134 367.992 188.026 368.275C187.919 368.558 187.755 368.817 187.545 369.035C187.335 369.253 187.083 369.427 186.804 369.546C186.525 369.664 186.226 369.725 185.923 369.725C185.62 369.725 185.32 369.664 185.041 369.546C184.763 369.427 184.511 369.253 184.301 369.035C184.091 368.817 183.927 368.558 183.819 368.275C183.711 367.992 183.662 367.69 183.673 367.388V365.339H180.135C179.833 365.351 179.531 365.301 179.248 365.194C178.964 365.086 178.706 364.922 178.488 364.712C178.27 364.502 178.096 364.25 177.977 363.971C177.859 363.693 177.798 363.393 177.798 363.09C177.798 362.787 177.859 362.487 177.977 362.208C178.096 361.93 178.27 361.678 178.488 361.468C178.706 361.258 178.964 361.094 179.248 360.986C179.531 360.878 179.833 360.829 180.135 360.84H183.67V357.868C183.692 357.286 183.939 356.736 184.358 356.332C184.778 355.928 185.337 355.703 185.919 355.703C186.501 355.703 187.061 355.928 187.48 356.332C187.9 356.736 188.146 357.286 188.169 357.868V360.84H191.707C192.304 360.84 192.877 361.078 193.299 361.5C193.721 361.922 193.958 362.494 193.958 363.092Z" fill="#B4702F"/>
<path d="M190.35 235.205C187.045 244.688 175.267 249.207 175.267 249.207C175.267 249.207 168.846 238.35 172.148 228.867C175.45 219.383 187.228 214.865 187.228 214.865C187.228 214.865 193.652 225.721 190.35 235.205Z" fill="#B4702F"/>
<path d="M187.228 214.865C187.228 214.865 193.652 225.721 190.351 235.205C187.049 244.688 175.268 249.207 175.268 249.207L187.228 214.865Z" fill="#56303C"/>
<path d="M115.068 284.18H42.1029C38.7716 284.18 36.071 286.88 36.071 290.212V293.936C36.071 297.267 38.7716 299.968 42.1029 299.968H115.068C118.399 299.968 121.099 297.267 121.099 293.936V290.212C121.099 286.88 118.399 284.18 115.068 284.18Z" fill="#56303C"/>
<path d="M124.641 299.968H32.5263C23.6544 299.968 16.4622 307.16 16.4622 316.032V359.745C16.4622 368.617 23.6544 375.809 32.5263 375.809H124.641C133.513 375.809 140.705 368.617 140.705 359.745V316.032C140.705 307.16 133.513 299.968 124.641 299.968Z" fill="white" stroke="#B4702F" stroke-width="1.79893" stroke-miterlimit="10"/>
<path d="M123.753 371.001H33.4143C30.2012 371 27.1201 369.723 24.8484 367.451C22.5768 365.178 21.3006 362.097 21.3006 358.884V316.89C21.3006 310.2 26.724 306.306 33.4143 306.306H123.753C130.443 306.306 135.867 310.2 135.867 316.89V358.884C135.867 362.097 134.591 365.178 132.319 367.451C130.047 369.723 126.966 371 123.753 371.001Z" fill="#D9AF00"/>
<path d="M116.618 358.528C118.456 358.528 119.946 357.037 119.946 355.199C119.946 353.361 118.456 351.87 116.618 351.87C114.779 351.87 113.289 353.361 113.289 355.199C113.289 357.037 114.779 358.528 116.618 358.528Z" fill="white"/>
<path d="M111.327 361.261C112.072 361.261 112.677 360.657 112.677 359.911C112.677 359.165 112.072 358.561 111.327 358.561C110.581 358.561 109.977 359.165 109.977 359.911C109.977 360.657 110.581 361.261 111.327 361.261Z" fill="white"/>
<path d="M103.772 323.822C105.015 323.822 106.023 322.814 106.023 321.571C106.023 320.328 105.015 319.32 103.772 319.32C102.528 319.32 101.521 320.328 101.521 321.571C101.521 322.814 102.528 323.822 103.772 323.822Z" fill="white"/>
<path d="M45.5945 353.081C47.0857 353.081 48.2945 351.872 48.2945 350.381C48.2945 348.89 47.0857 347.681 45.5945 347.681C44.1033 347.681 42.8944 348.89 42.8944 350.381C42.8944 351.872 44.1033 353.081 45.5945 353.081Z" fill="white"/>
<path d="M37.418 346.889C38.1636 346.889 38.768 346.284 38.768 345.539C38.768 344.793 38.1636 344.189 37.418 344.189C36.6724 344.189 36.068 344.793 36.068 345.539C36.068 346.284 36.6724 346.889 37.418 346.889Z" fill="white"/>
<path d="M94.5546 283.668V344.289L90.468 340.199L86.4944 344.173L82.5241 340.199L78.4374 344.289L74.3508 340.199L70.3772 344.173L66.4069 340.199L62.3202 344.289V283.668H94.5546Z" fill="#FFAFB1"/>
<path d="M85.7659 308.864H79.5644L76.462 314.237L79.5644 319.607H85.7659L88.8683 314.237L85.7659 308.864Z" fill="white"/>
<path d="M74.5603 315.526H68.3588L65.2564 320.899L68.3588 326.269H74.5603L77.6627 320.899L74.5603 315.526Z" fill="white"/>
<path d="M85.7659 322.08H79.5644L76.462 327.454L79.5644 332.824H85.7659L88.8683 327.454L85.7659 322.08Z" fill="white"/>
<path d="M62.3202 344.289L65.6122 340.997C65.8229 340.786 66.1088 340.668 66.4069 340.668C66.705 340.668 66.9908 340.786 67.2016 340.997L70.3772 344.173L73.556 340.997C73.7668 340.786 74.0527 340.668 74.3508 340.668C74.6489 340.668 74.9347 340.786 75.1455 340.997L78.4374 344.289L81.7294 340.997C81.9402 340.786 82.226 340.668 82.5241 340.668C82.8222 340.668 83.108 340.786 83.3188 340.997L86.4944 344.173L89.6733 340.997C89.884 340.786 90.1699 340.668 90.468 340.668C90.766 340.668 91.0519 340.786 91.2627 340.997L94.5546 344.289" stroke="white" stroke-width="1.26025" stroke-linejoin="round"/>
<path d="M147.482 152.205L40.9761 165.838L36.9027 166.357L18.2551 168.751H18.1686L11.1325 169.652L2.72308 103.917L136.762 86.7487C137.369 86.673 137.983 86.8401 138.468 87.2135C138.954 87.587 139.272 88.1368 139.355 88.7438L147.482 152.205Z" fill="#D9AF00"/>
<path d="M139.171 85.4189L102.38 90.25L110.997 155.875L147.788 151.044L139.171 85.4189Z" fill="#B4702F"/>
<path d="M102.193 91.1205C103.164 98.6953 81.68 107.69 54.2106 111.208C26.7412 114.726 3.68434 111.437 2.71338 103.859L102.193 91.1205Z" fill="#A0D6FF"/>
<path d="M76.3328 141.901C73.1473 148.714 65.1835 152.036 62.1841 153.073L69.0108 138.476C69.0981 138.262 69.1 138.023 69.016 137.808C68.9321 137.592 68.7686 137.418 68.5595 137.319C68.3503 137.221 68.1115 137.207 67.8922 137.28C67.673 137.353 67.4901 137.507 67.3814 137.711L60.5548 152.312C59.4309 149.346 56.8738 141.106 60.0593 134.289C64.023 125.81 75.3752 122.741 75.3752 122.741C75.3752 122.741 80.2965 133.422 76.3328 141.901Z" fill="white"/>
<path d="M47.2876 142.994L55.8301 150.333C53.3328 150.516 47.5636 150.519 43.6765 147.187C38.5989 142.831 38.6588 134.425 38.6588 134.425C38.6588 134.425 46.9717 133.095 52.0393 137.438C55.9232 140.763 56.801 146.466 57.0005 148.966L48.4448 141.628C48.3563 141.543 48.2514 141.477 48.1366 141.434C48.0217 141.391 47.8993 141.372 47.7768 141.378C47.6543 141.384 47.5344 141.415 47.4243 141.469C47.3142 141.523 47.2162 141.599 47.1365 141.692C47.0567 141.785 46.9968 141.893 46.9604 142.01C46.924 142.127 46.9118 142.251 46.9248 142.373C46.9377 142.495 46.9753 142.613 47.0354 142.72C47.0955 142.826 47.1768 142.92 47.2743 142.994H47.2876Z" fill="white"/>
<path d="M48.4645 130.541C50.1136 130.541 51.4505 129.204 51.4505 127.555C51.4505 125.906 50.1136 124.569 48.4645 124.569C46.8153 124.569 45.4784 125.906 45.4784 127.555C45.4784 129.204 46.8153 130.541 48.4645 130.541Z" stroke="#56303C" stroke-width="1.79893" stroke-miterlimit="10" stroke-linecap="round"/>
<path d="M60.1884 128.577C61.7093 127.94 62.4256 126.19 61.7881 124.669C61.1506 123.148 59.4009 122.432 57.8799 123.07C56.359 123.707 55.6428 125.457 56.2803 126.978C56.9177 128.499 58.6675 129.215 60.1884 128.577Z" stroke="#56303C" stroke-width="1.79893" stroke-miterlimit="10" stroke-linecap="round"/>
<path d="M52.6481 122.075C54.2972 122.075 55.6341 120.738 55.6341 119.089C55.6341 117.44 54.2972 116.103 52.6481 116.103C50.9989 116.103 49.662 117.44 49.662 119.089C49.662 120.738 50.9989 122.075 52.6481 122.075Z" stroke="#56303C" stroke-width="1.79893" stroke-miterlimit="10" stroke-linecap="round"/>
<path d="M111.77 155.933L127.488 142.356L146.552 151.234" stroke="#56303C" stroke-width="1.79893" stroke-miterlimit="10" stroke-linecap="round"/>
<path d="M103.214 91.6296L122.543 103.763L127.488 142.355" stroke="#56303C" stroke-width="1.79893" stroke-miterlimit="10" stroke-linecap="round"/>
<path d="M138.292 87.2579L122.543 103.764" stroke="#56303C" stroke-width="1.79893" stroke-miterlimit="10" stroke-linecap="round"/>
<path d="M492.673 388.462L492.141 398.64L481.956 398.527L472.545 391.997L485.75 381.023L487.858 384.262C489.041 386.083 490.709 387.537 492.673 388.462Z" fill="#B4702F"/>
<path d="M485.749 381.026L472.542 392.003L476.598 394.816L485.749 381.026Z" fill="#56303C"/>
<path d="M519.86 387.365L488.906 411.938C488.384 412.356 487.758 412.624 487.096 412.715C486.433 412.805 485.759 412.713 485.144 412.45C484.53 412.187 483.998 411.762 483.606 411.22C483.215 410.678 482.978 410.04 482.92 409.374L481.946 398.531L492.131 398.644L492.663 388.465C495.038 389.588 497.721 389.879 500.281 389.29L518.742 385.064C519.033 384.995 519.337 385.027 519.607 385.154C519.876 385.282 520.094 385.498 520.224 385.766C520.354 386.034 520.389 386.339 520.323 386.629C520.257 386.92 520.093 387.179 519.86 387.365V387.365Z" fill="#D9AF00"/>
<path d="M486.587 413.763L521.392 386.075" stroke="#56303C" stroke-width="1.79893" stroke-miterlimit="10" stroke-linecap="round"/>
<path d="M500.257 387.042L498.163 388.821L496.387 386.726C496.153 386.452 495.976 386.134 495.865 385.79C495.755 385.447 495.713 385.085 495.742 384.726C495.772 384.366 495.871 384.016 496.036 383.695C496.201 383.374 496.428 383.089 496.703 382.856V382.856C496.979 382.623 497.298 382.447 497.642 382.338C497.985 382.228 498.348 382.188 498.707 382.219C499.067 382.25 499.417 382.351 499.737 382.518C500.057 382.684 500.341 382.912 500.573 383.188V383.188C501.039 383.743 501.268 384.459 501.209 385.18C501.149 385.902 500.808 386.571 500.257 387.042Z" stroke="#56303C" stroke-width="1.79893" stroke-miterlimit="10" stroke-linecap="round"/>
<path d="M349.849 387.949L347.099 395.607H336.086L334.317 386.074L334.536 385.868L339.7 381.026L349.849 387.949Z" fill="#B4702F"/>
<path d="M339.697 381.026L349.849 387.949L347.967 393.19L339.697 381.026Z" fill="#56303C"/>
<path d="M334.317 386.075L336.086 395.608H347.059L346.799 396.316C346.274 400.912 348.372 406.824 352.668 408.546L358.019 410.488C358.27 410.59 358.477 410.776 358.606 411.015C358.735 411.253 358.778 411.528 358.726 411.794C358.675 412.06 358.533 412.3 358.324 412.473C358.116 412.646 357.854 412.741 357.583 412.743H340.738L324.285 394.371C322.831 392.745 323.51 389.653 325.575 388.954L334.317 386.075Z" fill="#D9AF00"/>
<path d="M322.293 392.372L340.744 412.746H359.013" stroke="#56303C" stroke-width="1.79893" stroke-miterlimit="10" stroke-linecap="round"/>
<path d="M350.026 402.02L347.492 400.966L348.546 398.428C348.684 398.095 348.887 397.793 349.142 397.538C349.398 397.283 349.701 397.081 350.035 396.944C350.368 396.806 350.726 396.736 351.086 396.737C351.447 396.738 351.804 396.81 352.137 396.949V396.949C352.47 397.087 352.773 397.29 353.028 397.545C353.283 397.801 353.484 398.104 353.622 398.437C353.759 398.771 353.83 399.128 353.829 399.489C353.828 399.85 353.756 400.207 353.617 400.54V400.54C353.337 401.212 352.801 401.746 352.128 402.023C351.454 402.301 350.698 402.3 350.026 402.02Z" stroke="#56303C" stroke-width="1.79893" stroke-miterlimit="10" stroke-linecap="round"/>
<path d="M485.75 381.028L464.556 398.652L405.494 295.571L397.633 328.49L353.88 390.066L333.38 376.732L367.896 304.615L376.006 237.596C376.393 234.406 377.935 231.468 380.34 229.337C382.745 227.206 385.847 226.029 389.06 226.028H421.179C421.351 226.028 421.519 226.079 421.663 226.175C421.806 226.271 421.917 226.407 421.983 226.566V226.566L485.75 381.028Z" fill="#00BF63"/>
<mask id="mask0_501_8145" style="mask-type:alpha" maskUnits="userSpaceOnUse" x="333" y="226" width="153" height="173">
<path d="M485.75 381.028L464.556 398.652L405.494 295.571L397.633 328.49L353.88 390.066L333.38 376.732L367.896 304.615L376.006 237.596C376.393 234.406 377.935 231.468 380.34 229.337C382.745 227.206 385.847 226.029 389.06 226.028H421.179C421.351 226.028 421.519 226.079 421.663 226.175C421.806 226.271 421.917 226.407 421.983 226.566L485.75 381.028Z" fill="#EDE0C4"/>
</mask>
<g mask="url(#mask0_501_8145)">
<path d="M396.163 329.896V225.625" stroke="#7ED957" stroke-width="1.08069" stroke-miterlimit="10"/>
<path d="M386.603 345.198V225.625" stroke="#7ED957" stroke-width="1.08069" stroke-miterlimit="10"/>
<path d="M406.012 295.208V225.625" stroke="#7ED957" stroke-width="1.08069" stroke-miterlimit="10"/>
<path d="M415.861 310.51V225.625" stroke="#7ED957" stroke-width="1.08069" stroke-miterlimit="10"/>
<path d="M425.713 329.896V231.746" stroke="#7ED957" stroke-width="1.08069" stroke-miterlimit="10"/>
<path d="M435.563 348.261V255.721" stroke="#7ED957" stroke-width="1.08069" stroke-miterlimit="10"/>
<path d="M445.412 369.173V281.229" stroke="#7ED957" stroke-width="1.08069" stroke-miterlimit="10"/>
<path d="M455.262 383.458V306.732" stroke="#7ED957" stroke-width="1.08069" stroke-miterlimit="10"/>
<path d="M357.192 386.517V326.118" stroke="#7ED957" stroke-width="1.08069" stroke-miterlimit="10"/>
<path d="M367.041 369.172V305.711" stroke="#7ED957" stroke-width="1.08069" stroke-miterlimit="10"/>
<path d="M347.146 386.008V349.584" stroke="#7ED957" stroke-width="1.08069" stroke-miterlimit="10"/>
<path d="M376.889 358.971V231.746" stroke="#7ED957" stroke-width="1.08069" stroke-miterlimit="10"/>
<path d="M452.588 300.388H368.101" stroke="#7ED957" stroke-width="1.08069" stroke-miterlimit="10"/>
<path d="M449.016 290.54H369.631" stroke="#7ED957" stroke-width="1.08069" stroke-miterlimit="10"/>
<path d="M445.445 280.69H369.631" stroke="#7ED957" stroke-width="1.08069" stroke-miterlimit="10"/>
<path d="M440.344 270.84H371.673" stroke="#7ED957" stroke-width="1.08069" stroke-miterlimit="10"/>
<path d="M435.752 260.991H372.69" stroke="#7ED957" stroke-width="1.08069" stroke-miterlimit="10"/>
<path d="M432.184 251.143H373.711" stroke="#7ED957" stroke-width="1.08069" stroke-miterlimit="10"/>
<path d="M428.101 241.293H375.752" stroke="#7ED957" stroke-width="1.08069" stroke-miterlimit="10"/>
<path d="M424.021 231.44H377.838" stroke="#7ED957" stroke-width="1.08069" stroke-miterlimit="10"/>
<path d="M484.726 379.245H331.883" stroke="#7ED957" stroke-width="1.08069" stroke-miterlimit="10"/>
<path d="M489.827 389.197H331.883" stroke="#7ED957" stroke-width="1.08069" stroke-miterlimit="10"/>
<path d="M482.176 369.396H336.472" stroke="#7ED957" stroke-width="1.08069" stroke-miterlimit="10"/>
<path d="M478.605 359.546H340.044" stroke="#7ED957" stroke-width="1.08069" stroke-miterlimit="10"/>
<path d="M474.524 349.697H345.144" stroke="#7ED957" stroke-width="1.08069" stroke-miterlimit="10"/>
<path d="M468.911 339.849H350.245" stroke="#7ED957" stroke-width="1.08069" stroke-miterlimit="10"/>
<path d="M464.323 329.999H355.346" stroke="#7ED957" stroke-width="1.08069" stroke-miterlimit="10"/>
<path d="M460.751 320.146H360.45" stroke="#7ED957" stroke-width="1.08069" stroke-miterlimit="10"/>
<path d="M455.65 310.298H365.085" stroke="#7ED957" stroke-width="1.08069" stroke-miterlimit="10"/>
<path d="M465.556 396.723V330.199" stroke="#7ED957" stroke-width="1.08069" stroke-miterlimit="10"/>
<path d="M475.761 388.559V359.786" stroke="#7ED957" stroke-width="1.08069" stroke-miterlimit="10"/>
</g>
<path d="M405.494 295.574L383.88 256.273C381.481 251.917 380.223 247.025 380.222 242.052" stroke="#56303C" stroke-width="1.79893" stroke-miterlimit="10" stroke-linecap="round"/>
<path d="M464.555 398.643L485.75 381.027" stroke="#56303C" stroke-width="1.79893" stroke-miterlimit="10" stroke-linecap="round"/>
<path d="M333.38 376.725L353.88 390.059" stroke="#56303C" stroke-width="1.79893" stroke-miterlimit="10" stroke-linecap="round"/>
<path d="M420.739 227.806L409.307 245.004" stroke="#56303C" stroke-width="1.79893" stroke-miterlimit="10" stroke-linecap="round"/>
<path d="M420.312 114.594L408.534 110.76C408.534 110.76 405.262 101.935 407.054 99.0716C408.846 96.2086 428.415 93.3756 428.415 93.3756C434.041 92.2782 438.929 93.4254 439.581 96.1055C440.28 98.9619 435.924 102.48 429.832 103.963L420.312 114.594Z" fill="#56303C"/>
<path d="M437.988 114.005H436.325C436.225 114.003 436.126 114.024 436.035 114.065C435.944 114.107 435.863 114.168 435.799 114.245C435.735 114.322 435.69 114.413 435.666 114.51C435.641 114.607 435.64 114.709 435.66 114.807L436.847 120.732C436.927 121.133 436.917 121.546 436.817 121.942C436.718 122.339 436.532 122.708 436.273 123.024C436.014 123.34 435.688 123.594 435.319 123.769C434.949 123.943 434.546 124.034 434.137 124.034H431.973C431.16 124.035 430.381 124.358 429.807 124.933C429.233 125.508 428.91 126.287 428.91 127.1V135.499H397.44C399.067 135.502 400.664 135.069 402.067 134.246C403.471 133.424 404.628 132.241 405.421 130.821L410.545 119.355C409.461 119.09 408.498 118.469 407.809 117.591C407.12 116.713 406.745 115.63 406.744 114.514V114.484C406.744 113.825 406.873 113.173 407.125 112.564C407.377 111.955 407.746 111.402 408.212 110.936C408.677 110.47 409.23 110.101 409.839 109.848C410.448 109.596 411.1 109.466 411.759 109.466H412.337C413.343 109.467 414.327 109.755 415.174 110.298L417.219 111.628C422.715 109.237 420.597 102.377 420.597 102.377C431.344 103.571 434.786 97.4757 434.786 97.4757L438.746 113.061C438.773 113.175 438.774 113.293 438.749 113.407C438.723 113.521 438.672 113.628 438.599 113.719C438.526 113.811 438.433 113.884 438.327 113.933C438.221 113.983 438.105 114.007 437.988 114.005Z" fill="#B4702F"/>
<path d="M431.969 124.034C431.164 124.034 430.391 124.354 429.821 124.923C429.251 125.492 428.929 126.264 428.927 127.069L428.907 132.057L420.594 122.171C421.137 122.758 421.795 123.226 422.528 123.546C423.26 123.866 424.051 124.031 424.85 124.03L431.969 124.034Z" fill="#56303C"/>
<path d="M428.988 105.476L433 104.498L433.174 105.212C433.283 105.658 433.21 106.129 432.971 106.522C432.733 106.914 432.348 107.196 431.901 107.305L427.925 108.274L427.743 107.528C427.636 107.091 427.707 106.629 427.941 106.244C428.174 105.86 428.551 105.583 428.988 105.476Z" fill="#56303C"/>
<path d="M432.192 109.856C432.175 110.011 432.113 110.159 432.014 110.28C431.914 110.401 431.782 110.491 431.633 110.539C431.484 110.586 431.324 110.59 431.173 110.549C431.022 110.508 430.886 110.424 430.782 110.308C430.677 110.191 430.608 110.047 430.584 109.892C430.56 109.737 430.581 109.579 430.644 109.436C430.708 109.293 430.812 109.171 430.943 109.086C431.074 109.001 431.227 108.955 431.384 108.955C431.61 108.967 431.823 109.07 431.974 109.238C432.125 109.407 432.204 109.629 432.192 109.856Z" fill="#56303C"/>
<path d="M411.041 112.598C411.429 112.598 411.813 112.674 412.172 112.823C412.53 112.971 412.856 113.189 413.13 113.464C413.404 113.738 413.622 114.064 413.77 114.423C413.918 114.782 413.994 115.166 413.994 115.554" stroke="#56303C" stroke-width="1.43981" stroke-miterlimit="10" stroke-linecap="round"/>
<path d="M413.172 113.5L411.383 115.169" stroke="#56303C" stroke-width="1.43981" stroke-miterlimit="10" stroke-linecap="round"/>
<path d="M436.026 116.636C434.873 116.869 433.001 115.821 433.001 114.973" stroke="#56303C" stroke-width="1.43981" stroke-miterlimit="10"/>
<path d="M434.269 92.7442L406.876 105.712L406.663 104.698C405.925 101.192 406.455 97.5379 408.16 94.3868C409.866 91.2357 412.635 88.7928 415.974 87.4937L424.49 84.1884C425.563 83.7704 426.75 83.7476 427.838 84.124C428.927 84.5005 429.846 85.2517 430.432 86.2434L434.269 92.7442Z" fill="#A0D6FF"/>
<path d="M406.876 105.728L441.182 89.8929" stroke="#D9AF00" stroke-width="1.79893" stroke-miterlimit="10" stroke-linecap="round"/>
<path d="M430.704 86.7097L425.5 88.901L426.93 92.439L432.583 89.8919L430.704 86.7097Z" fill="#D9AF00"/>
<path d="M383.404 226.019H419.446C420.436 226.019 421.396 225.681 422.168 225.061C422.94 224.441 423.478 223.577 423.692 222.61L433.521 178.385C435.356 170.131 435.268 161.565 433.262 153.35L428.916 135.497H395.099C390.266 135.496 385.516 136.755 381.318 139.149C377.119 141.543 373.617 144.99 371.157 149.15L327.045 224.186C326.476 225.155 326.114 226.231 325.983 227.347C325.852 228.463 325.955 229.594 326.285 230.668C326.616 231.742 327.166 232.735 327.901 233.585C328.637 234.434 329.541 235.121 330.557 235.602L337.962 239.107C339.686 239.922 341.643 240.103 343.487 239.616C345.331 239.129 346.944 238.007 348.041 236.446L379.962 191.141L377.359 219.365C377.28 220.207 377.378 221.056 377.646 221.859C377.914 222.661 378.346 223.398 378.915 224.024C379.483 224.65 380.176 225.151 380.949 225.494C381.722 225.838 382.558 226.016 383.404 226.019Z" fill="#A0D6FF"/>
<path d="M423.759 141.209H426.602" stroke="#56303C" stroke-width="1.79893" stroke-miterlimit="10" stroke-linecap="round"/>
<path d="M426.602 142.65C427.397 142.65 428.042 142.005 428.042 141.21C428.042 140.415 427.397 139.77 426.602 139.77C425.807 139.77 425.162 140.415 425.162 141.21C425.162 142.005 425.807 142.65 426.602 142.65Z" fill="#D9AF00"/>
<path d="M424.27 147.845H427.113" stroke="#56303C" stroke-width="1.79893" stroke-miterlimit="10" stroke-linecap="round"/>
<path d="M427.113 149.273C427.908 149.273 428.553 148.628 428.553 147.833C428.553 147.038 427.908 146.393 427.113 146.393C426.318 146.393 425.674 147.038 425.674 147.833C425.674 148.628 426.318 149.273 427.113 149.273Z" fill="#D9AF00"/>
<path d="M392.422 167.5L391.401 174.955" stroke="white" stroke-width="1.61937" stroke-miterlimit="10" stroke-linecap="round"/>
<path d="M379.946 191.148L396.662 168.221" stroke="#56303C" stroke-width="1.79893" stroke-miterlimit="10" stroke-linecap="round"/>
<path d="M435.14 175.871H425.74C424.608 175.871 423.691 176.789 423.691 177.92V183.247C423.691 184.378 424.608 185.295 425.74 185.295H435.14C436.271 185.295 437.188 184.378 437.188 183.247V177.92C437.188 176.789 436.271 175.871 435.14 175.871Z" fill="#7ED957"/>
<path d="M395.61 135.497L412.954 144.056C417.671 146.38 421.731 149.846 424.767 154.138C427.802 158.431 429.716 163.415 430.335 168.636L431.246 176.327L431.472 141.875" stroke="white" stroke-width="0.901127" stroke-miterlimit="10" stroke-linecap="round"/>
<path d="M431.107 173.701V176.327" stroke="#56303C" stroke-width="1.79893" stroke-miterlimit="10" stroke-linecap="round"/>
<path d="M425.674 185.296H431.985L431.582 187.108L425.674 185.296Z" fill="#56303C"/>
<path d="M434.435 179.646H427.22V181.295H434.435V179.646Z" fill="#D9AF00"/>
<path d="M426.701 135.129L428.909 133.153V130.001L431.949 134.324C432.293 134.816 432.504 135.388 432.562 135.986C432.621 136.584 432.524 137.186 432.281 137.735L430.449 141.872L428.916 135.498H422.498L419.486 140.715L395.099 135.498L402.361 126.413C402.852 125.799 403.533 125.365 404.297 125.179C405.061 124.993 405.866 125.066 406.584 125.386L426.701 135.129Z" fill="#D9AF00"/>
<path d="M419.486 140.206L423.184 134.38" stroke="white" stroke-width="1.61937" stroke-miterlimit="10" stroke-linecap="round"/>
<path d="M327.437 248.598L333.21 248.462C338.49 248.033 343.445 243.251 340.858 237.871C339.761 235.593 336.046 234.06 332.791 232.657C329.426 231.207 326.393 230.895 323.58 233.239L317.499 237.415C316.482 238.11 315.739 239.138 315.4 240.322L311.942 251.601C311.813 252.023 311.783 252.469 311.854 252.904C311.926 253.339 312.097 253.752 312.355 254.111C312.612 254.469 312.949 254.763 313.339 254.969C313.729 255.176 314.161 255.29 314.602 255.302L324.934 255.538C325.58 255.552 326.217 255.384 326.772 255.053C327.327 254.722 327.778 254.241 328.073 253.666L328.362 253.1C328.443 252.942 328.483 252.766 328.477 252.588C328.472 252.41 328.421 252.237 328.33 252.084C328.239 251.932 328.11 251.805 327.956 251.715C327.803 251.626 327.629 251.578 327.451 251.574C327.212 251.569 326.978 251.506 326.768 251.391C326.558 251.276 326.38 251.113 326.247 250.914C326.114 250.715 326.031 250.487 326.005 250.25C325.979 250.012 326.011 249.772 326.097 249.549C326.203 249.276 326.386 249.041 326.624 248.872C326.862 248.702 327.145 248.607 327.437 248.598Z" fill="#B4702F"/>
<path d="M317.984 247.162L316.398 252.482C316.322 252.734 316.307 253.001 316.352 253.26C316.398 253.519 316.503 253.764 316.66 253.975C316.817 254.187 317.021 254.358 317.256 254.477C317.492 254.595 317.751 254.657 318.014 254.657H319.264L322.257 254.77H321.888C321.625 254.77 321.365 254.708 321.13 254.59C320.895 254.471 320.691 254.3 320.534 254.088C320.377 253.877 320.272 253.632 320.226 253.373C320.181 253.114 320.196 252.847 320.272 252.595L321.858 247.445" stroke="#56303C" stroke-width="1.43981" stroke-linecap="round" stroke-linejoin="round"/>
<path d="M333.928 243.168L328.824 245.336C328.225 245.591 327.714 246.017 327.354 246.56C326.995 247.104 326.803 247.74 326.802 248.392" stroke="#56303C" stroke-width="1.43981" stroke-miterlimit="10" stroke-linecap="round"/>
</svg>
