<svg width="30" height="29" viewBox="0 0 30 29" fill="none" xmlns="http://www.w3.org/2000/svg">
<path d="M15 0C14.8641 0 14.7287 0.0435382 14.613 0.131897L0.238292 11.4614C-0.0304531 11.676 -0.0804034 12.0725 0.132093 12.3502C0.344589 12.6216 0.737209 12.672 1.0122 12.4575L1.87523 11.777V28.3689C1.87523 28.716 2.15647 29 2.50022 29H11.2501V17.6396H18.7499V29H27.4998C27.8435 29 28.1248 28.716 28.1248 28.3689V11.777L28.9878 12.4575C29.1065 12.5458 29.2373 12.5906 29.3748 12.5906C29.5622 12.5906 29.7429 12.508 29.8679 12.3502C30.0804 12.0725 30.0305 11.676 29.7617 11.4614L15.387 0.131897C15.2713 0.0435382 15.1359 0 15 0ZM21.2499 2.49248V3.15566L24.9998 6.10916V2.49248H21.2499Z" fill="white"/>
</svg>
