<svg width="90" height="68" viewBox="0 0 90 68" fill="none" xmlns="http://www.w3.org/2000/svg">
<path d="M5.00009 -5.13828e-07C4.47004 -0.0074967 3.94379 0.0904285 3.45191 0.288084C2.96004 0.485739 2.51236 0.779181 2.13488 1.15136C1.7574 1.52354 1.45765 1.96703 1.25306 2.45606C1.04847 2.94508 0.943115 3.4699 0.943115 4C0.943115 4.5301 1.04847 5.05491 1.25306 5.54394C1.45765 6.03297 1.7574 6.47646 2.13488 6.84864C2.51236 7.22082 2.96004 7.51426 3.45191 7.71192C3.94379 7.90957 4.47004 8.0075 5.00009 8H85.0001C85.5301 8.0075 86.0564 7.90957 86.5483 7.71192C87.0401 7.51426 87.4878 7.22082 87.8653 6.84864C88.2428 6.47646 88.5425 6.03297 88.7471 5.54394C88.9517 5.05491 89.0571 4.5301 89.0571 4C89.0571 3.4699 88.9517 2.94508 88.7471 2.45606C88.5425 1.96703 88.2428 1.52354 87.8653 1.15136C87.4878 0.779181 87.0401 0.485739 86.5483 0.288084C86.0564 0.0904285 85.5301 -0.0074967 85.0001 -5.13828e-07H5.00009ZM5.00009 30C4.47004 29.9925 3.94379 30.0904 3.45191 30.2881C2.96004 30.4857 2.51236 30.7792 2.13488 31.1514C1.7574 31.5235 1.45765 31.967 1.25306 32.4561C1.04847 32.9451 0.943115 33.4699 0.943115 34C0.943115 34.5301 1.04847 35.0549 1.25306 35.5439C1.45765 36.033 1.7574 36.4765 2.13488 36.8486C2.51236 37.2208 2.96004 37.5143 3.45191 37.7119C3.94379 37.9096 4.47004 38.0075 5.00009 38H85.0001C85.5301 38.0075 86.0564 37.9096 86.5483 37.7119C87.0401 37.5143 87.4878 37.2208 87.8653 36.8486C88.2428 36.4765 88.5425 36.033 88.7471 35.5439C88.9517 35.0549 89.0571 34.5301 89.0571 34C89.0571 33.4699 88.9517 32.9451 88.7471 32.4561C88.5425 31.967 88.2428 31.5235 87.8653 31.1514C87.4878 30.7792 87.0401 30.4857 86.5483 30.2881C86.0564 30.0904 85.5301 29.9925 85.0001 30H5.00009ZM5.00009 60C4.47004 59.9925 3.94379 60.0904 3.45191 60.2881C2.96004 60.4857 2.51236 60.7792 2.13488 61.1514C1.7574 61.5235 1.45765 61.967 1.25306 62.4561C1.04847 62.9451 0.943115 63.4699 0.943115 64C0.943115 64.5301 1.04847 65.0549 1.25306 65.5439C1.45765 66.033 1.7574 66.4765 2.13488 66.8486C2.51236 67.2208 2.96004 67.5143 3.45191 67.7119C3.94379 67.9096 4.47004 68.0075 5.00009 68H85.0001C85.5301 68.0075 86.0564 67.9096 86.5483 67.7119C87.0401 67.5143 87.4878 67.2208 87.8653 66.8486C88.2428 66.4765 88.5425 66.033 88.7471 65.5439C88.9517 65.0549 89.0571 64.5301 89.0571 64C89.0571 63.4699 88.9517 62.9451 88.7471 62.4561C88.5425 61.967 88.2428 61.5235 87.8653 61.1514C87.4878 60.7792 87.0401 60.4857 86.5483 60.2881C86.0564 60.0904 85.5301 59.9925 85.0001 60H5.00009Z" fill="black"/>
</svg>
